<svg width="47" height="56" viewBox="0 0 47 56" fill="none" xmlns="http://www.w3.org/2000/svg">
<g id="Group">
<path id="Vector" d="M23.7365 0H22.3281C18.2355 0 14.7676 3.1699 14.4321 7.22116C14.4321 7.22116 14.4321 11.0871 14.4396 12.4117L18.2393 9.5072C18.2393 8.42177 18.2568 7.44776 18.2818 7.31005C18.4204 6.34394 18.9108 5.46302 19.659 4.83623C20.9109 3.73703 23.4536 3.51919 25.2276 4.16519L28.5402 1.62752C27.1635 0.572232 25.4774 0.000207501 23.7428 0" fill="black"/>
<path id="Vector_2" d="M28.8658 35.9405L26.6048 34.2128C25.8877 34.7511 25.0113 35.0345 24.1147 35.0178H22.7013C21.7223 35.0369 20.7698 34.6987 20.0221 34.0664C19.2782 33.4691 18.7894 32.611 18.655 31.6664C18.6125 31.441 18.6 29.6245 18.6125 28.0896L16.7095 26.6349L14.8679 25.2314C14.8168 25.5557 14.7904 25.8834 14.7891 26.2117V29.3703C14.7891 31.391 14.4949 33.4254 16.0135 35.5336C17.3843 37.5505 19.7868 38.9276 22.6011 38.9276H24.0096C25.0688 38.9365 26.1192 38.7346 27.0997 38.3338C28.0802 37.9329 28.9712 37.3411 29.7209 36.5928L28.8658 35.9405Z" fill="black"/>
<path id="Vector_3" d="M32.0317 28.6906C32.0317 30.5059 32.0568 31.9695 31.6286 33.3954L29.9761 32.1335L28.1983 30.7701C28.2234 29.1977 28.1983 26.1379 28.1608 25.9101C28.0181 24.9734 27.5288 24.1244 26.7899 23.5314C26.0012 22.8691 24.7017 22.5374 23.4097 22.5424C22.1177 22.5474 20.8182 22.8691 20.0294 23.5314C19.8262 23.7005 19.6396 23.8888 19.4723 24.0935L19.1994 23.8832L16.4815 21.8037C17.2353 20.8876 18.1839 20.1512 19.2583 19.6479C19.3472 19.6045 19.4383 19.5656 19.5312 19.5315C19.2921 19.4388 19.0655 19.3387 18.8389 19.2298C17.4773 18.5645 16.3361 17.5214 15.5513 16.2251L18.6298 13.8677C18.9584 14.5692 19.4817 15.1615 20.1373 15.5741C20.793 15.9867 21.5534 16.2023 22.328 16.1951H23.7364C24.2052 16.197 24.6709 16.1191 25.1136 15.9647L23.3095 14.1619L26.035 11.4352L27.7126 13.1128C27.7464 12.9876 27.7714 12.8486 27.7927 12.7147C27.8641 12.3041 27.8465 7.62807 27.7927 7.31384C27.7728 7.18234 27.746 7.05196 27.7126 6.92323L30.8837 4.49072C31.3005 5.34671 31.5552 6.27247 31.6349 7.22119L31.6512 12.6934C31.576 12.9275 31.6299 14.3209 30.6233 16.0261L32.54 17.9478L29.8108 20.6732L27.9617 18.8154C27.7081 18.9769 27.4447 19.1224 27.173 19.251C27.0803 19.2974 26.9877 19.3399 26.8913 19.3762C27.1304 19.4639 27.3658 19.5603 27.5924 19.6692C29.9911 20.7959 31.7901 23.0707 32.0117 25.9389C32.0831 26.8528 32.0292 27.7755 32.0292 28.6931" fill="black"/>
<path id="Vector_4" d="M28.0319 47.9779C27.9067 46.3366 26.8751 45.0359 25.5018 44.3899C25.2658 44.2769 25.0203 44.1852 24.7681 44.1157C24.3608 44 23.9396 43.941 23.5162 43.9404H22.7099C22.2058 43.9414 21.7052 44.0242 21.2276 44.1858C21.0568 44.241 20.8896 44.3066 20.7269 44.3824C20.1112 44.6703 19.5676 45.092 19.1357 45.6168L20.6906 46.8074L20.8471 46.9326C20.9432 46.8155 21.05 46.7078 21.1663 46.6108C21.6195 46.2352 22.3619 46.0424 23.103 46.0449C23.8442 46.0474 24.5866 46.2327 25.0373 46.6108C25.4602 46.95 25.7404 47.4357 25.8223 47.9717C25.846 48.1044 25.8586 49.8496 25.8435 50.7535L26.8614 51.5334L27.8066 52.2558C28.057 51.4408 28.0369 50.602 28.0369 49.5629C28.0369 49.0408 28.0682 48.5125 28.0282 47.9892M26.2291 53.7005L24.9359 52.7115C24.525 53.0193 24.0233 53.1815 23.5099 53.1722H22.7012C22.1408 53.1831 21.5956 52.9895 21.1676 52.6276C20.7421 52.2866 20.4624 51.7965 20.3851 51.2567C20.3613 51.1315 20.3538 50.0887 20.3613 49.2098L19.2721 48.3773L18.218 47.571C18.1887 47.7566 18.1736 47.9441 18.1729 48.1319V49.9447C18.1729 51.1015 18.0039 52.2658 18.8728 53.4727C19.2954 54.0794 19.8598 54.5737 20.517 54.9126C21.1742 55.2514 21.9042 55.4245 22.6436 55.4169H23.4498C24.0564 55.4214 24.6578 55.3051 25.2189 55.0749C25.7801 54.8447 26.2899 54.5052 26.7186 54.0761L26.2291 53.7005Z" fill="black"/>
<path id="Vector_5" d="M5.25761 55.1551H0.375059V53.0081H5.16872C7.04662 53.0081 6.99279 50.1937 5.16872 50.1937C4.62788 50.1937 3.64261 50.1937 3.10303 50.1937C2.70592 50.2042 2.31071 50.1354 1.94049 49.9914C1.57028 49.8474 1.2325 49.631 0.946904 49.3549C0.661306 49.0788 0.433625 48.7485 0.277173 48.3833C0.120721 48.0182 0.0386378 47.6255 0.0357249 47.2283C0.032812 46.8311 0.109128 46.4372 0.260208 46.0698C0.411289 45.7025 0.634102 45.3689 0.91562 45.0886C1.19714 44.8083 1.53171 44.587 1.89977 44.4376C2.26783 44.2881 2.66199 44.2135 3.05921 44.2182H7.94927V46.3678C7.89794 46.3678 3.0517 46.3678 3.00037 46.3678C1.99882 46.4367 1.96502 47.9603 3.00037 48.0316C3.0855 48.0379 4.82694 48.0316 5.16872 48.0316C5.63524 48.0264 6.09792 48.1164 6.52845 48.2961C6.95898 48.4759 7.3483 48.7416 7.67259 49.077C9.90479 51.323 8.29856 55.1051 5.2501 55.1401" fill="black"/>
<path id="Vector_6" d="M12.2936 55.1403V46.3705H8.86084V44.2222H17.876V46.3705H14.4532V55.1403H12.2936Z" fill="black"/>
<path id="Vector_7" d="M34.1623 51.3643H31.1977V55.1326H29.0269V44.2157H34.1598C34.6318 44.2084 35.1003 44.298 35.5364 44.4788C35.9724 44.6597 36.3667 44.9281 36.695 45.2674C37.0384 45.6104 37.3083 46.0198 37.4882 46.4706C37.668 46.9214 37.7541 47.4042 37.7411 47.8894C37.7281 48.3746 37.6163 48.8521 37.4125 49.2926C37.2088 49.7332 36.9173 50.1275 36.556 50.4516C36.921 50.9513 37.1147 51.5556 37.1081 52.1743V55.1326H34.9723V52.1743C34.9728 52.0678 34.9522 51.9622 34.9117 51.8637C34.8711 51.7652 34.8115 51.6758 34.7362 51.6004C34.6608 51.5251 34.5714 51.4655 34.4729 51.4249C34.3744 51.3844 34.2688 51.3638 34.1623 51.3643ZM31.1977 49.2047H34.1623C34.3482 49.2094 34.5332 49.1757 34.7055 49.1057C34.8778 49.0357 35.0339 48.9309 35.1638 48.7978C35.4254 48.53 35.5718 48.1706 35.5718 47.7963C35.5718 47.422 35.4254 47.0625 35.1638 46.7947C35.0287 46.6534 34.8644 46.5432 34.6824 46.4716C34.5003 46.4001 34.3049 46.3689 34.1097 46.3803H31.1977V49.2047Z" fill="black"/>
<path id="Vector_8" d="M46.9083 55.1566H43.2777C42.2611 55.1566 41.2295 54.9338 40.3657 54.3779C39.6445 53.9098 39.0833 53.2329 38.757 52.4374C38.3814 51.5373 38.4202 50.6071 38.4202 49.6581C38.4202 48.6629 38.3163 47.7039 38.931 46.5521C39.3538 45.7689 40.0102 45.137 40.8089 44.7443C41.5787 44.3777 42.4227 44.1939 43.2752 44.2072H46.9058V46.3656H43.2777C41.5012 46.3656 40.5936 47.3871 40.5685 48.6103H46.1321V50.7523H40.5723C40.5998 51.9805 41.4912 52.9971 43.2802 52.9971H46.9108L46.9083 55.1566Z" fill="black"/>
</g>
</svg>
